<svg width="300" height="71" viewBox="0 0 7224 1704" fill="none" xmlns="http://www.w3.org/2000/svg">
<path fill-rule="evenodd" clip-rule="evenodd" d="M5265.89 1702.13L4681.27 1701.59C4377.53 1701.59 4130.95 1454.46 4130.95 1150.72C4131.49 917.201 4277.38 717.437 4483.14 637.421C4578.4 271.086 4911.52 0 5307.25 0C5571.8 0 5808.05 120.842 5964.81 310.269C6001.83 304.281 6039.94 301.02 6078.58 301.02C6317 301.02 6527.65 420.232 6654.48 602.039H6674.09C6977.83 602.039 7224.41 849.161 7223.87 1152.9C7223.87 1456.64 6976.73 1703.22 6672.99 1703.22L6103.08 1702.67C6094.91 1703.22 6086.75 1703.22 6078.58 1703.22C6070.42 1703.22 6062.25 1703.22 6053.55 1702.67L5348.08 1702.13C5334.47 1702.68 5320.86 1703.22 5307.25 1703.22C5293.65 1703.22 5279.5 1702.68 5265.89 1702.13Z" fill="#121210"/>
<path d="M4740.31 1461.67C4899.54 1461.67 5012.43 1357.93 5041.09 1245.1H4934.07C4909.66 1307.38 4847.3 1363.99 4740.31 1363.99C4614.76 1363.99 4522.92 1271.22 4522.92 1154.99C4522.92 1038.75 4614.76 945.991 4740.31 945.991C4843.93 945.991 4906.27 1004.11 4929.87 1064.88H5036.86C5008.22 954.512 4896.17 848.305 4740.31 848.305C4554.1 848.305 4419.29 983.85 4419.29 1154.99C4419.29 1325.93 4554.1 1461.67 4740.31 1461.67Z" fill="#F8F8F7"/>
<path d="M5211.28 860.053H5112.7V1449.82H5211.28V860.053Z" fill="#F8F8F7"/>
<path d="M5528.07 1461.67C5666.24 1461.67 5771.56 1362.29 5771.56 1236.78C5771.56 1110.32 5666.24 1011.69 5528.07 1011.69C5389.89 1011.69 5284.57 1110.32 5284.57 1236.78C5284.57 1362.29 5389.89 1461.67 5528.07 1461.67ZM5528.07 1371.57C5443.81 1371.57 5383.99 1314.96 5383.99 1236.78C5383.99 1158.4 5443.81 1101.8 5528.07 1101.8C5612.32 1101.8 5672.98 1158.4 5672.98 1236.78C5672.98 1314.96 5612.32 1371.57 5528.07 1371.57Z" fill="#F8F8F7"/>
<path d="M6039.49 1461.67C6121.22 1461.67 6168.39 1425.52 6187.76 1401.85H6191.99L6209.69 1449.93H6283.83V1023.61H6185.25V1243.4C6185.25 1318.37 6134.68 1368.91 6059.7 1368.91C5985.56 1368.91 5935.85 1318.37 5935.85 1243.4V1023.61H5837.27V1257.79C5837.27 1381.59 5920.69 1461.67 6039.49 1461.67Z" fill="#F8F8F7"/>
<path d="M6579.55 1461.67C6662.97 1461.67 6712.66 1422.87 6734.58 1401.85H6738.79L6755.65 1449.94H6830.63V860.053H6731.21V1068.1H6727C6708.45 1048.03 6658.74 1011.68 6579.55 1011.68C6456.54 1011.68 6353.75 1104.45 6353.75 1236.78C6353.75 1368.92 6456.54 1461.67 6579.55 1461.67ZM6592.2 1371.56C6513.83 1371.56 6453.17 1316.67 6453.17 1236.78C6453.17 1156.7 6513.83 1101.8 6592.2 1101.8C6670.55 1101.8 6731.21 1156.7 6731.21 1236.78C6731.21 1316.67 6670.55 1371.56 6592.2 1371.56Z" fill="#F8F8F7"/>
<path fill-rule="evenodd" clip-rule="evenodd" d="M596.479 868.362C596.479 870.538 595.799 872.66 594.531 874.429C565.092 915.535 211.923 1408.66 211.923 1408.66C211.923 1408.66 538.606 1408.66 601.538 1408.66C604.301 1408.66 606.952 1409.76 608.906 1411.71C610.86 1413.66 611.957 1416.31 611.957 1419.08V1558.97C611.957 1561.73 610.86 1564.38 608.906 1566.33C606.952 1568.29 604.301 1569.39 601.538 1569.39C527.7 1569.39 84.257 1569.39 10.4189 1569.39C4.66481 1569.39 0 1564.72 0 1558.97C0 1530.78 0 1453.97 0 1437.01C0 1434.83 0.680822 1432.71 1.94778 1430.94C31.3875 1389.83 384.556 896.711 384.556 896.711C384.556 896.711 83.7342 896.711 23.515 896.711C20.7518 896.711 18.1021 895.613 16.148 893.659C14.194 891.705 13.0961 889.054 13.0961 886.291C13.0961 857.223 13.0961 775.47 13.0961 746.401C13.0961 743.638 14.194 740.988 16.148 739.034C18.1021 737.08 20.7518 735.982 23.515 735.982C95.1791 735.982 514.396 735.982 586.06 735.982C591.815 735.982 596.479 740.647 596.479 746.401C596.479 774.594 596.479 851.397 596.479 868.362Z" fill="#121210"/>
<path fill-rule="evenodd" clip-rule="evenodd" d="M1252.01 1256.26C1252.01 1281.06 1250.31 1301.04 1246.91 1316.22C1245.75 1320.85 1241.6 1324.1 1236.82 1324.1C1177.36 1324.12 807.922 1324.12 807.922 1324.12C816.655 1360.63 833.918 1389.21 859.711 1409.84C885.504 1430.48 916.658 1440.8 953.172 1440.8C996.033 1440.8 1031.14 1426.78 1058.5 1398.74C1060.46 1396.71 1063.16 1395.57 1065.98 1395.57C1087.2 1395.56 1178.43 1395.56 1215.76 1395.56C1219.32 1395.56 1222.64 1397.38 1224.55 1400.38C1226.46 1403.39 1226.71 1407.16 1225.2 1410.39C1213.32 1434.8 1196.67 1459.23 1175.21 1483.66C1149.42 1513.03 1117.47 1537.23 1079.37 1556.28C1041.27 1575.33 1000 1584.86 955.551 1584.86C899.199 1584.86 847.214 1570.57 799.588 1542C751.961 1513.42 714.262 1474.73 686.482 1425.92C658.702 1377.1 644.812 1323.72 644.812 1265.78C644.812 1209.43 658.9 1156.65 687.077 1107.44C715.254 1058.23 753.151 1019.13 800.777 990.164C848.403 961.193 899.199 946.709 953.172 946.709C1007.94 946.709 1058.14 960.201 1103.78 987.189C1149.42 1014.17 1185.53 1051.28 1212.12 1098.51C1238.71 1145.73 1252.01 1198.32 1252.01 1256.26ZM953.172 1090.77C918.247 1090.77 887.688 1101.28 861.496 1122.32C835.303 1143.35 817.446 1172.12 807.922 1208.64H1096.04C1086.52 1172.92 1068.86 1144.34 1043.06 1122.91C1017.26 1101.48 987.299 1090.77 953.172 1090.77Z" fill="#121210"/>
<path fill-rule="evenodd" clip-rule="evenodd" d="M1756.34 1090.57C1756.34 1093.01 1755.48 1095.38 1753.91 1097.26C1726.69 1129.75 1480.12 1424.14 1480.12 1424.14C1480.12 1424.14 1704.07 1424.14 1755.45 1424.14C1758.21 1424.14 1760.86 1425.24 1762.81 1427.2C1764.77 1429.15 1765.87 1431.8 1765.87 1434.56C1765.87 1461.32 1765.87 1532.22 1765.87 1558.98C1765.87 1561.74 1764.77 1564.39 1762.81 1566.34C1760.86 1568.3 1758.21 1569.4 1755.45 1569.4C1692.45 1569.4 1363.05 1569.4 1300.05 1569.4C1297.29 1569.4 1294.64 1568.3 1292.69 1566.34C1290.73 1564.39 1289.63 1561.74 1289.63 1558.98C1289.63 1531.59 1289.63 1458.49 1289.63 1441.03C1289.63 1438.58 1290.49 1436.21 1292.07 1434.34C1319.28 1401.84 1565.84 1107.45 1565.84 1107.45C1565.84 1107.45 1355.66 1107.45 1306 1107.45C1303.24 1107.45 1300.59 1106.35 1298.64 1104.4C1296.68 1102.45 1295.59 1099.8 1295.59 1097.03C1295.59 1070.28 1295.59 999.376 1295.59 972.619C1295.59 969.856 1296.68 967.206 1298.64 965.252C1300.59 963.299 1303.24 962.201 1306 962.201C1367.67 962.201 1684.25 962.201 1745.92 962.201C1748.68 962.201 1751.33 963.299 1753.29 965.252C1755.24 967.206 1756.34 969.856 1756.34 972.619C1756.34 1000 1756.34 1073.1 1756.34 1090.57Z" fill="#121210"/>
<path fill-rule="evenodd" clip-rule="evenodd" d="M2080.01 1584.86C2030.8 1584.86 1984.57 1570.97 1941.31 1543.19C1898.05 1515.41 1863.53 1477.11 1837.74 1428.3C1811.93 1379.48 1799.04 1325.31 1799.04 1265.78C1799.04 1206.25 1811.93 1152.08 1837.74 1103.27C1863.53 1054.46 1898.05 1016.16 1941.31 988.379C1984.57 960.599 2030.8 946.709 2080.01 946.709C2121.29 946.709 2157 955.042 2187.16 971.711C2217.33 988.379 2239.15 1005.05 2252.65 1021.71H2258.6C2258.6 1021.71 2275.34 983.669 2282.05 968.408C2283.72 964.628 2287.46 962.186 2291.59 962.186C2311.79 962.186 2371.55 962.186 2395.81 962.186C2401.57 962.186 2406.23 966.851 2406.23 972.605C2406.23 1046.08 2406.23 1485.48 2406.23 1558.96C2406.23 1564.72 2401.57 1569.38 2395.81 1569.38C2371.55 1569.38 2311.79 1569.38 2291.59 1569.38C2287.46 1569.38 2283.72 1566.94 2282.05 1563.16C2275.34 1547.9 2258.6 1509.85 2258.6 1509.85H2252.65C2239.15 1526.52 2217.33 1543.19 2187.16 1559.86C2157 1576.52 2121.29 1584.86 2080.01 1584.86ZM2102.64 1434.85C2128.03 1434.85 2151.45 1427.7 2172.88 1413.41C2194.31 1399.13 2211.57 1379.09 2224.67 1353.29C2237.76 1327.49 2244.31 1298.33 2244.31 1265.78C2244.31 1233.24 2237.76 1204.07 2224.67 1178.28C2211.57 1152.48 2194.31 1132.44 2172.88 1118.15C2151.45 1103.86 2128.03 1096.72 2102.64 1096.72C2077.24 1096.72 2053.82 1103.86 2032.39 1118.15C2010.96 1132.44 1993.7 1152.48 1980.6 1178.28C1967.51 1204.07 1960.96 1233.24 1960.96 1265.78C1960.96 1298.33 1967.51 1327.49 1980.6 1353.29C1993.7 1379.09 2010.96 1399.13 2032.39 1413.41C2053.82 1427.7 2077.24 1434.85 2102.64 1434.85Z" fill="#121210"/>
<path fill-rule="evenodd" clip-rule="evenodd" d="M3124.09 946.709C3191.57 946.709 3244.74 969.329 3283.63 1014.57C3322.53 1059.81 3341.97 1123.31 3341.97 1205.06C3341.97 1205.06 3341.97 1499.44 3341.97 1558.96C3341.97 1564.72 3337.31 1569.38 3331.56 1569.38C3302.31 1569.38 3219.71 1569.38 3190.47 1569.38C3184.72 1569.38 3180.05 1564.72 3180.05 1558.96C3180.05 1500.02 3180.05 1211.02 3180.05 1211.02C3180.05 1176.09 3171.13 1148.31 3153.27 1127.68C3135.41 1107.04 3112.98 1096.72 3086 1096.72C3059.01 1096.72 3036.59 1107.04 3018.73 1127.68C3000.87 1148.31 2991.94 1176.09 2991.94 1211.02C2991.94 1211.02 2991.94 1500.02 2991.94 1558.96C2991.94 1564.72 2987.28 1569.38 2981.52 1569.38C2952.28 1569.38 2869.69 1569.38 2840.44 1569.38C2834.69 1569.38 2830.03 1564.72 2830.03 1558.96C2830.03 1500.02 2830.03 1211.02 2830.03 1211.02C2830.03 1176.09 2821.1 1148.31 2803.24 1127.68C2785.38 1107.04 2762.95 1096.72 2735.97 1096.72C2708.98 1096.72 2686.56 1107.04 2668.7 1127.68C2650.84 1148.31 2641.91 1176.09 2641.91 1211.02C2641.91 1211.02 2641.91 1500.02 2641.91 1558.96C2641.91 1564.72 2637.25 1569.38 2631.49 1569.38C2602.25 1569.38 2519.66 1569.38 2490.41 1569.38C2484.66 1569.38 2480 1564.72 2480 1558.96C2480 1485.48 2480 1046.08 2480 972.605C2480 966.851 2484.66 962.186 2490.41 962.186C2514.68 962.186 2574.43 962.186 2594.63 962.186C2598.76 962.186 2602.51 964.628 2604.17 968.408C2610.89 983.669 2627.63 1021.71 2627.63 1021.71H2633.58C2644.69 1005.84 2663.15 989.371 2688.94 972.306C2714.74 955.241 2745.09 946.709 2780.02 946.709C2821.29 946.709 2855.82 955.439 2883.6 972.902C2911.38 990.363 2932.81 1010.21 2947.89 1032.43C2964.56 1010.21 2988.77 990.363 3020.51 972.902C3052.26 955.439 3086.79 946.709 3124.09 946.709Z" fill="#121210"/>
<path fill-rule="evenodd" clip-rule="evenodd" d="M3577.89 1559.16C3577.89 1564.95 3573.21 1569.58 3567.47 1569.58C3538.23 1569.58 3455.61 1569.58 3426.37 1569.58C3420.63 1569.58 3415.95 1564.95 3415.95 1559.16C3415.95 1485.77 3415.95 1046.32 3415.95 972.927C3415.95 967.138 3420.63 962.508 3426.37 962.508C3455.61 962.508 3538.23 962.508 3567.47 962.508C3573.21 962.508 3577.89 967.138 3577.89 972.927C3577.89 1046.32 3577.89 1485.77 3577.89 1559.16Z" fill="#121210"/>
<path fill-rule="evenodd" clip-rule="evenodd" d="M3496.93 898.241C3471.59 898.241 3450.19 889.692 3432.77 872.132C3415.35 854.803 3406.64 833.315 3406.64 808.13C3406.64 782.714 3415.35 761.227 3432.77 743.898C3450.19 726.338 3471.59 717.787 3496.93 717.787C3522.28 717.787 3543.68 726.338 3561.1 743.898C3578.52 761.227 3587.23 782.714 3587.23 808.13C3587.23 833.315 3578.52 854.803 3561.1 872.132C3543.68 889.692 3522.28 898.241 3496.93 898.241Z" fill="#121210"/>
<path fill-rule="evenodd" clip-rule="evenodd" d="M3733.5 898.241C3708.16 898.241 3686.76 889.692 3669.34 872.132C3651.92 854.803 3643.21 833.315 3643.21 808.13C3643.21 782.714 3651.92 761.227 3669.34 743.898C3686.76 726.338 3708.16 717.787 3733.5 717.787C3758.85 717.787 3780.25 726.338 3797.67 743.898C3815.09 761.227 3823.8 782.714 3823.8 808.13C3823.8 833.315 3815.09 854.803 3797.67 872.132C3780.25 889.692 3758.85 898.241 3733.5 898.241Z" fill="#121210"/>
<path fill-rule="evenodd" clip-rule="evenodd" d="M3814.47 1559.16C3814.47 1564.95 3809.81 1569.58 3804.05 1569.58C3774.81 1569.58 3692.22 1569.58 3662.98 1569.58C3657.21 1569.58 3652.56 1564.95 3652.56 1559.16C3652.56 1485.77 3652.56 1046.32 3652.56 972.927C3652.56 967.138 3657.21 962.508 3662.98 962.508C3692.22 962.508 3774.81 962.508 3804.05 962.508C3809.81 962.508 3814.47 967.138 3814.47 972.927C3814.47 1046.32 3814.47 1485.77 3814.47 1559.16Z" fill="#121210"/>
</svg>
